<?xml version="1.0" encoding="UTF-8" standalone="no"?>
<svg
   version="1.1"
   viewBox="0.00 0.00 1080.00 1080.00"
   id="svg188"
   sodipodi:docname="Pasted-20230811-163148.svg"
   inkscape:export-filename="Pasted-20230811-163148.png"
   inkscape:export-xdpi="96"
   inkscape:export-ydpi="96"
   inkscape:version="1.2.1 (9c6d41e4, 2022-07-14)"
   xmlns:inkscape="http://www.inkscape.org/namespaces/inkscape"
   xmlns:sodipodi="http://sodipodi.sourceforge.net/DTD/sodipodi-0.dtd"
   xmlns="http://www.w3.org/2000/svg"
   xmlns:svg="http://www.w3.org/2000/svg">
  <defs
     id="defs192" />
  <sodipodi:namedview
     id="namedview190"
     pagecolor="#505050"
     bordercolor="#ffffff"
     borderopacity="1"
     inkscape:showpageshadow="0"
     inkscape:pageopacity="0"
     inkscape:pagecheckerboard="1"
     inkscape:deskcolor="#505050"
     showgrid="false"
     inkscape:zoom="0.84091678"
     inkscape:cx="497.67112"
     inkscape:cy="554.15709"
     inkscape:window-width="2560"
     inkscape:window-height="1080"
     inkscape:window-x="1440"
     inkscape:window-y="0"
     inkscape:window-maximized="0"
     inkscape:current-layer="svg188" />
  <g
     stroke-width="2.00"
     fill="none"
     stroke-linecap="butt"
     id="g94"
     style="stroke-width:12.5;stroke-dasharray:none;stroke:#b5edff;stroke-opacity:1;fill:#000000;fill-opacity:0">
    <path
       stroke="#899db4"
       vector-effect="non-scaling-stroke"
       d="   M 465.46 787.35   L 465.52 764.71   A 0.69 0.69 0.0 0 0 464.77 764.02   L 462.79 764.19   Q 462.26 764.23 462.26 764.76   L 462.23 789.87   Q 462.23 790.50 462.86 790.50   L 478.86 790.50   Q 479.43 790.50 479.62 789.97   L 482.24 782.78   A 0.81 0.80 9.7 0 1 483.00 782.25   L 492.73 782.25   A 0.75 0.73 79.7 0 1 493.42 782.74   Q 494.69 786.32 496.01 789.89   A 0.93 0.92 -9.9 0 0 496.88 790.50   L 498.94 790.50   Q 499.63 790.50 499.38 789.86   L 489.59 764.71   A 1.85 1.85 0.0 0 0 486.14 764.71   L 477.42 787.33   Q 477.25 787.75 476.81 787.75   L 465.85 787.75   Q 465.46 787.75 465.46 787.35"
       id="path16"
       style="stroke-width:12.5;stroke-dasharray:none;stroke:#b5edff;stroke-opacity:1;fill:#000000;fill-opacity:0" />
    <path
       stroke="#899db4"
       vector-effect="non-scaling-stroke"
       d="   M 527.98 764.92   C 500.31 757.22 503.43 798.54 526.88 790.07   A 1.23 1.23 0.0 0 0 526.39 787.68   Q 525.37 787.74 523.22 788.00   C 506.01 790.10 508.68 760.69 526.41 767.62   A 1.32 1.31 14.9 0 0 528.19 766.59   L 528.35 765.49   Q 528.42 765.04 527.98 764.92"
       id="path18"
       style="stroke-width:12.5;stroke-dasharray:none;stroke:#b5edff;stroke-opacity:1;fill:#000000;fill-opacity:0" />
    <path
       stroke="#899db4"
       vector-effect="non-scaling-stroke"
       d="   M 554.3469 774.9744   A 11.05 11.05 0.0 0 0 543.3744 763.8475   L 541.3144 763.8331   A 11.05 11.05 0.0 0 0 530.1875 774.8057   L 530.1531 779.7456   A 11.05 11.05 0.0 0 0 541.1256 790.8725   L 543.1856 790.8869   A 11.05 11.05 0.0 0 0 554.3125 779.9143   L 554.3469 774.9744"
       id="path20"
       style="stroke-width:12.5;stroke-dasharray:none;stroke:#b5edff;stroke-opacity:1;fill:#000000;fill-opacity:0" />
    <path
       stroke="#899db4"
       vector-effect="non-scaling-stroke"
       d="   M 560.53 769.59   C 561.74 764.69 568.52 766.94 571.50 767.77   Q 572.08 767.94 572.22 767.36   L 572.63 765.69   A 0.54 0.54 0.0 0 0 572.29 765.05   Q 566.91 763.03 562.50 764.03   C 556.86 765.30 554.96 773.20 560.08 776.41   C 563.36 778.46 573.36 779.86 569.57 786.60   A 1.59 1.56 -85.2 0 1 568.77 787.29   Q 563.06 789.51 557.47 786.89   Q 556.82 786.59 556.80 787.30   L 556.75 789.48   Q 556.73 789.98 557.22 790.11   C 562.61 791.50 571.54 792.28 573.27 785.03   C 575.76 774.61 558.57 777.57 560.53 769.59"
       id="path22"
       style="stroke-width:12.5;stroke-dasharray:none;stroke:#b5edff;stroke-opacity:1;fill:#000000;fill-opacity:0" />
    <path
       stroke="#899db4"
       vector-effect="non-scaling-stroke"
       d="   M 586.69 776.56   C 589.44 778.14 598.26 780.09 596.54 785.12   C 594.88 789.99 586.83 788.04 583.49 787.19   Q 582.95 787.05 582.98 787.61   L 583.06 789.35   Q 583.08 789.78 583.49 789.92   C 587.48 791.28 597.20 792.03 599.08 786.83   C 602.09 778.48 594.62 776.99 589.26 774.41   C 584.56 772.14 586.32 766.69 591.28 766.53   Q 594.02 766.44 597.71 767.77   Q 598.32 767.99 598.49 767.37   L 598.99 765.63   Q 599.13 765.16 598.66 764.99   Q 593.15 763.01 588.77 764.01   C 582.91 765.34 581.36 773.50 586.69 776.56"
       id="path24"
       style="stroke-width:12.5;stroke-dasharray:none;stroke:#b5edff;stroke-opacity:1;fill:#000000;fill-opacity:0" />
    <path
       stroke="#899db4"
       vector-effect="non-scaling-stroke"
       d="   M 719.8954 774.7192   A 10.94 10.94 0.0 0 0 708.9363 763.7983   L 706.9763 763.8017   A 10.94 10.94 0.0 0 0 696.0554 774.7608   L 696.0646 780.0008   A 10.94 10.94 0.0 0 0 707.0237 790.9217   L 708.9837 790.9183   A 10.94 10.94 0.0 0 0 719.9046 779.9592   L 719.8954 774.7192"
       id="path26"
       style="stroke-width:12.5;stroke-dasharray:none;stroke:#b5edff;stroke-opacity:1;fill:#000000;fill-opacity:0" />
    <path
       stroke="#899db4"
       vector-effect="non-scaling-stroke"
       d="   M 775.69 782.53   C 778.26 789.99 766.49 787.94 763.30 787.04   Q 762.74 786.88 762.47 787.40   Q 761.85 788.60 762.67 789.79   Q 762.95 790.21 763.44 790.33   C 768.79 791.66 777.56 792.02 778.99 785.01   C 780.77 776.29 771.15 777.29 767.04 773.53   C 764.99 771.65 765.80 767.79 768.23 766.99   Q 772.07 765.72 776.66 767.80   Q 777.14 768.02 777.46 767.59   L 778.41 766.29   A 0.92 0.92 0.0 0 0 777.97 764.87   C 773.67 763.38 765.05 762.46 763.16 768.18   C 759.57 779.03 773.74 776.89 775.69 782.53"
       id="path28"
       style="stroke-width:12.5;stroke-dasharray:none;stroke:#b5edff;stroke-opacity:1;fill:#000000;fill-opacity:0" />
    <path
       stroke="#899db4"
       vector-effect="non-scaling-stroke"
       d="   M 845.21 787.35   L 845.27 764.89   Q 845.27 764.25 844.64 764.25   L 842.95 764.25   Q 842.41 764.25 842.41 764.80   L 842.41 790.08   Q 842.41 790.50 842.83 790.50   L 858.67 790.50   Q 859.17 790.50 859.36 790.03   L 862.14 782.86   A 1.22 1.21 11.4 0 1 863.30 782.09   L 872.56 782.29   Q 873.09 782.31 873.27 782.80   L 875.88 789.90   Q 876.08 790.44 876.65 790.45   L 879.05 790.50   Q 879.48 790.51 879.32 790.11   L 869.46 764.74   A 1.82 1.82 0.0 0 0 866.07 764.75   L 857.39 787.19   Q 857.17 787.75 856.57 787.75   L 845.60 787.75   Q 845.21 787.75 845.21 787.35"
       id="path30"
       style="stroke-width:12.5;stroke-dasharray:none;stroke:#b5edff;stroke-opacity:1;fill:#000000;fill-opacity:0" />
    <path
       stroke="#899db4"
       vector-effect="non-scaling-stroke"
       d="   M 923.11 782.60   L 925.74 789.89   A 0.95 0.93 -9.6 0 0 926.63 790.51   L 929.02 790.48   A 0.28 0.28 0.0 0 0 929.28 790.09   L 919.43 764.91   A 1.89 1.88 -45.0 0 0 915.92 764.91   L 906.19 789.86   Q 905.94 790.50 906.63 790.50   L 908.68 790.50   Q 909.12 790.50 909.28 790.09   L 912.12 782.72   Q 912.31 782.24 912.82 782.24   L 922.63 782.27   Q 922.98 782.27 923.11 782.60"
       id="path32"
       style="stroke-width:12.5;stroke-dasharray:none;stroke:#b5edff;stroke-opacity:1;fill:#000000;fill-opacity:0" />
    <path
       stroke="#899db4"
       vector-effect="non-scaling-stroke"
       d="   M 934.29 787.28   Q 934.11 775.88 934.41 764.48   Q 934.43 763.88 933.83 763.95   L 931.66 764.21   Q 931.09 764.28 931.10 764.84   L 931.31 790.03   A 0.48 0.47 89.4 0 0 931.78 790.50   L 947.73 790.50   Q 948.26 790.50 948.45 790.00   L 951.22 782.78   A 0.82 0.82 0.0 0 1 951.99 782.25   L 961.51 782.25   Q 962.05 782.25 962.24 782.76   L 964.91 790.00   Q 965.15 790.64 965.83 790.64   L 967.68 790.62   Q 968.51 790.61 968.21 789.84   L 958.44 764.74   Q 958.21 764.14 957.61 763.91   C 956.10 763.32 955.18 764.43 954.63 765.81   Q 950.43 776.50 946.28 787.34   Q 946.13 787.75 945.69 787.75   L 934.76 787.75   Q 934.30 787.75 934.29 787.28"
       id="path34"
       style="stroke-width:12.5;stroke-dasharray:none;stroke:#b5edff;stroke-opacity:1;fill:#000000;fill-opacity:0" />
    <path
       stroke="#899db4"
       vector-effect="non-scaling-stroke"
       d="   M 1010.88 788.26   A 0.65 0.65 0.0 0 1 1009.71 788.35   L 1004.40 779.37   Q 1004.14 778.94 1004.59 778.71   Q 1010.44 775.68 1009.05 769.59   C 1007.50 762.80 997.82 763.75 992.77 764.32   Q 992.42 764.36 992.43 764.71   L 992.51 789.88   A 0.62 0.62 0.0 0 0 993.13 790.50   L 994.87 790.50   Q 995.50 790.50 995.50 789.87   L 995.50 780.06   Q 995.50 779.45 996.12 779.46   L 1000.43 779.52   Q 1001.03 779.53 1001.33 780.05   L 1007.11 790.06   Q 1007.37 790.50 1007.88 790.50   L 1012.44 790.50   Q 1013.10 790.50 1013.34 789.88   L 1016.11 782.58   Q 1016.27 782.16 1016.71 782.16   L 1026.52 782.29   Q 1027.05 782.30 1027.23 782.78   L 1029.95 789.91   Q 1030.20 790.56 1030.89 790.52   L 1032.60 790.44   A 0.53 0.53 0.0 0 0 1033.06 789.72   L 1023.33 764.72   A 1.71 1.61 -29.2 0 0 1020.77 764.08   Q 1020.59 764.21 1020.29 764.91   Q 1015.35 776.67 1010.88 788.26"
       id="path36"
       style="stroke-width:12.5;stroke-dasharray:none;stroke:#b5edff;stroke-opacity:1;fill:#000000;fill-opacity:0" />
    <path
       stroke="#899db4"
       vector-effect="non-scaling-stroke"
       d="   M 504.4112 764.5396   A 0.52 0.52 0.0 0 0 503.8876 764.0232   L 501.8477 764.0374   A 0.52 0.52 0.0 0 0 501.3313 764.5611   L 501.5088 789.9804   A 0.52 0.52 0.0 0 0 502.0324 790.4968   L 504.0723 790.4826   A 0.52 0.52 0.0 0 0 504.5887 789.9589   L 504.4112 764.5396"
       id="path38"
       style="stroke-width:12.5;stroke-dasharray:none;stroke:#b5edff;stroke-opacity:1;fill:#000000;fill-opacity:0" />
    <path
       stroke="#899db4"
       vector-effect="non-scaling-stroke"
       d="   M 634.21 778.76   C 640.99 775.39 640.67 765.45 632.76 764.47   Q 627.10 763.78 622.68 764.06   Q 622.13 764.10 622.14 764.65   L 622.30 790.03   Q 622.30 790.50 622.78 790.50   L 624.62 790.50   Q 625.25 790.50 625.25 789.87   L 625.25 780.11   Q 625.25 779.47 625.89 779.48   L 630.18 779.54   Q 630.66 779.55 630.91 779.97   Q 633.78 785.02 636.72 790.03   Q 636.99 790.50 637.54 790.50   L 640.14 790.50   Q 640.82 790.50 640.47 789.92   L 634.03 779.37   Q 633.79 778.97 634.21 778.76"
       id="path40"
       style="stroke-width:12.5;stroke-dasharray:none;stroke:#b5edff;stroke-opacity:1;fill:#000000;fill-opacity:0" />
    <path
       stroke="#899db4"
       vector-effect="non-scaling-stroke"
       d="   M 650.36 785.47   L 643.23 764.86   Q 643.01 764.25 642.36 764.25   L 640.27 764.25   Q 639.61 764.25 639.83 764.87   Q 644.29 777.34 648.67 789.84   Q 648.90 790.50 649.60 790.50   L 651.86 790.50   Q 652.24 790.50 652.37 790.14   L 661.49 764.97   A 0.69 0.69 0.0 0 0 661.04 764.07   C 659.36 763.57 658.32 764.12 657.72 765.77   Q 654.17 775.56 650.90 785.47   A 0.29 0.28 44.6 0 1 650.36 785.47"
       id="path42"
       style="stroke-width:12.5;stroke-dasharray:none;stroke:#b5edff;stroke-opacity:1;fill:#000000;fill-opacity:0" />
    <path
       stroke="#899db4"
       vector-effect="non-scaling-stroke"
       d="   M 666.5548 764.4754   A 0.42 0.42 0.0 0 0 666.1363 764.0539   L 663.9363 764.0462   A 0.42 0.42 0.0 0 0 663.5148 764.4648   L 663.4252 790.1446   A 0.42 0.42 0.0 0 0 663.8437 790.5661   L 666.0437 790.5738   A 0.42 0.42 0.0 0 0 666.4652 790.1552   L 666.5548 764.4754"
       id="path44"
       style="stroke-width:12.5;stroke-dasharray:none;stroke:#b5edff;stroke-opacity:1;fill:#000000;fill-opacity:0" />
    <path
       stroke="#899db4"
       vector-effect="non-scaling-stroke"
       d="   M 732.96 780.00   L 738.80 789.90   Q 739.16 790.51 739.88 790.51   L 741.86 790.48   A 0.61 0.60 -15.9 0 0 742.38 789.56   L 736.14 779.36   Q 735.78 778.76 736.43 778.50   Q 740.43 776.88 740.96 773.04   C 742.37 762.94 731.21 763.64 724.51 764.23   Q 724.09 764.27 724.09 764.70   L 724.32 790.03   Q 724.32 790.50 724.79 790.50   L 726.75 790.50   Q 727.25 790.50 727.25 790.00   L 727.25 779.97   Q 727.25 779.43 727.78 779.45   L 732.29 779.61   Q 732.73 779.62 732.96 780.00"
       id="path46"
       style="stroke-width:12.5;stroke-dasharray:none;stroke:#b5edff;stroke-opacity:1;fill:#000000;fill-opacity:0" />
    <path
       stroke="#899db4"
       vector-effect="non-scaling-stroke"
       d="   M 748.88 787.75   A 0.43 0.43 0.0 0 1 748.45 787.32   L 748.53 778.60   A 0.43 0.43 0.0 0 1 748.96 778.17   L 759.30 778.19   A 0.43 0.43 0.0 0 0 759.73 777.77   L 759.76 775.94   A 0.43 0.43 0.0 0 0 759.33 775.50   L 748.99 775.50   A 0.43 0.43 0.0 0 1 748.56 775.08   L 748.35 767.19   A 0.43 0.43 0.0 0 1 748.78 766.75   L 759.88 766.75   A 0.43 0.43 0.0 0 0 760.31 766.36   L 760.47 764.77   A 0.43 0.43 0.0 0 0 760.05 764.29   L 745.69 764.12   A 0.43 0.43 0.0 0 0 745.25 764.55   L 745.25 790.12   A 0.43 0.43 0.0 0 0 745.68 790.55   L 759.82 790.47   A 0.43 0.43 0.0 0 0 760.25 790.04   L 760.25 788.18   A 0.43 0.43 0.0 0 0 759.82 787.75   L 748.88 787.75"
       id="path48"
       style="stroke-width:12.5;stroke-dasharray:none;stroke:#b5edff;stroke-opacity:1;fill:#000000;fill-opacity:0" />
    <path
       stroke="#899db4"
       vector-effect="non-scaling-stroke"
       d="   M 790.44 764.33   L 790.54 790.33   A 0.31 0.31 0.0 0 0 790.85 790.64   L 799.27 790.61   A 12.51 12.50 -0.2 0 0 811.73 778.06   L 811.73 776.44   A 12.51 12.50 -0.2 0 0 799.17 763.99   L 790.75 764.02   A 0.31 0.31 0.0 0 0 790.44 764.33"
       id="path50"
       style="stroke-width:12.5;stroke-dasharray:none;stroke:#b5edff;stroke-opacity:1;fill:#000000;fill-opacity:0" />
    <path
       stroke="#899db4"
       vector-effect="non-scaling-stroke"
       d="   M 818.98 787.75   A 0.33 0.33 0.0 0 1 818.65 787.42   L 818.72 778.51   A 0.33 0.33 0.0 0 1 819.05 778.18   L 829.42 778.29   A 0.33 0.33 0.0 0 0 829.75 777.96   L 829.75 775.83   A 0.33 0.33 0.0 0 0 829.42 775.50   L 819.13 775.50   A 0.33 0.33 0.0 0 1 818.80 775.18   L 818.65 767.33   A 0.33 0.33 0.0 0 1 818.98 766.99   L 830.08 767.00   A 0.33 0.33 0.0 0 0 830.41 766.69   L 830.54 764.60   A 0.33 0.33 0.0 0 0 830.21 764.25   L 816.04 764.25   A 0.33 0.33 0.0 0 0 815.71 764.58   L 815.77 790.17   A 0.33 0.33 0.0 0 0 816.10 790.50   L 830.17 790.50   A 0.33 0.33 0.0 0 0 830.50 790.17   L 830.50 788.08   A 0.33 0.33 0.0 0 0 830.17 787.75   L 818.98 787.75"
       id="path52"
       style="stroke-width:12.5;stroke-dasharray:none;stroke:#b5edff;stroke-opacity:1;fill:#000000;fill-opacity:0" />
    <path
       stroke="#899db4"
       vector-effect="non-scaling-stroke"
       d="   M 892.83 780.21   C 898.98 780.75 906.62 779.15 905.85 771.05   C 905.09 762.90 895.18 763.80 889.49 764.03   Q 889.00 764.05 889.00 764.54   Q 889.00 777.28 889.00 790.03   Q 889.00 790.80 889.76 790.70   L 891.78 790.44   Q 892.25 790.38 892.25 789.91   L 892.25 780.74   Q 892.25 780.16 892.83 780.21"
       id="path54"
       style="stroke-width:12.5;stroke-dasharray:none;stroke:#b5edff;stroke-opacity:1;fill:#000000;fill-opacity:0" />
    <path
       stroke="#899db4"
       vector-effect="non-scaling-stroke"
       d="   M 984.22 777.09   A 0.48 0.48 0.0 0 1 984.20 776.16   C 986.26 775.53 987.28 774.09 987.59 771.94   C 988.96 762.54 976.81 763.91 971.21 763.98   A 1.01 1.01 0.0 0 0 970.21 764.99   L 970.27 790.24   Q 970.27 790.67 970.69 790.65   C 975.05 790.44 982.20 791.34 985.50 789.26   C 989.82 786.52 989.97 778.60 984.22 777.09"
       id="path56"
       style="stroke-width:12.5;stroke-dasharray:none;stroke:#b5edff;stroke-opacity:1;fill:#000000;fill-opacity:0" />
    <path
       stroke="#899db4"
       vector-effect="non-scaling-stroke"
       d="   M 606.93 766.76   C 608.71 766.86 619.64 768.51 618.24 764.63   Q 618.11 764.25 617.70 764.25   L 603.91 764.25   A 0.59 0.59 0.0 0 0 603.32 764.84   L 603.37 790.05   Q 603.37 790.48 603.80 790.48   L 617.57 790.53   Q 618.24 790.54 618.24 789.87   L 618.24 788.28   Q 618.24 787.69 617.65 787.70   L 607.01 787.85   Q 606.47 787.86 606.48 787.33   L 606.51 778.59   Q 606.51 778.13 606.97 778.14   L 616.84 778.30   Q 617.50 778.31 617.50 777.65   L 617.50 776.11   Q 617.50 775.46 616.86 775.47   L 607.17 775.57   Q 606.53 775.57 606.52 774.93   L 606.45 767.22   Q 606.45 766.73 606.93 766.76"
       id="path58"
       style="stroke-width:12.5;stroke-dasharray:none;stroke:#b5edff;stroke-opacity:1;fill:#000000;fill-opacity:0" />
    <path
       stroke="#899db4"
       vector-effect="non-scaling-stroke"
       d="   M 671.97 764.41   L 671.97 790.27   A 0.21 0.21 0.0 0 0 672.18 790.48   L 681.31 790.48   A 11.72 11.43 -0.0 0 0 693.03 779.05   L 693.03 775.63   A 11.72 11.43 0.0 0 0 681.31 764.20   L 672.18 764.20   A 0.21 0.21 0.0 0 0 671.97 764.41"
       id="path60"
       style="stroke-width:12.5;stroke-dasharray:none;stroke:#b5edff;stroke-opacity:1;fill:#000000;fill-opacity:0" />
    <path
       stroke="#899db4"
       vector-effect="non-scaling-stroke"
       d="   M 483.87 778.93   A 0.34 0.34 0.0 0 0 484.19 779.39   L 491.49 779.43   A 0.34 0.34 0.0 0 0 491.81 778.97   L 488.17 769.25   A 0.34 0.34 0.0 0 0 487.53 769.25   L 483.87 778.93"
       id="path64"
       style="stroke-width:12.5;stroke-dasharray:none;stroke:#b5edff;stroke-opacity:1;fill:#000000;fill-opacity:0" />
    <path
       stroke="#899db4"
       vector-effect="non-scaling-stroke"
       d="   M 550.8949 774.5850   A 7.95 7.95 0.0 0 0 542.9588 766.6212   L 541.6188 766.6188   A 7.95 7.95 0.0 0 0 533.6549 774.5550   L 533.6451 780.1750   A 7.95 7.95 0.0 0 0 541.5812 788.1388   L 542.9212 788.1412   A 7.95 7.95 0.0 0 0 550.8851 780.2050   L 550.8949 774.5850"
       id="path66"
       style="stroke-width:12.5;stroke-dasharray:none;stroke:#b5edff;stroke-opacity:1;fill:#000000;fill-opacity:0" />
    <path
       stroke="#899db4"
       vector-effect="non-scaling-stroke"
       d="   M 716.6151 774.5750   A 7.95 7.95 0.0 0 0 708.6512 766.6388   L 707.3112 766.6412   A 7.95 7.95 0.0 0 0 699.3751 774.6050   L 699.3849 780.2050   A 7.95 7.95 0.0 0 0 707.3488 788.1412   L 708.6888 788.1388   A 7.95 7.95 0.0 0 0 716.6249 780.1750   L 716.6151 774.5750"
       id="path68"
       style="stroke-width:12.5;stroke-dasharray:none;stroke:#b5edff;stroke-opacity:1;fill:#000000;fill-opacity:0" />
    <path
       stroke="#899db4"
       vector-effect="non-scaling-stroke"
       d="   M 863.81 779.03   A 0.31 0.31 0.0 0 0 864.10 779.44   L 871.45 779.43   A 0.31 0.31 0.0 0 0 871.74 779.01   L 868.05 768.99   A 0.31 0.31 0.0 0 0 867.47 768.99   L 863.81 779.03"
       id="path70"
       style="stroke-width:12.5;stroke-dasharray:none;stroke:#b5edff;stroke-opacity:1;fill:#000000;fill-opacity:0" />
    <path
       stroke="#899db4"
       vector-effect="non-scaling-stroke"
       d="   M 918.07 768.92   A 0.31 0.31 0.0 0 0 917.49 768.92   L 913.63 779.08   A 0.31 0.31 0.0 0 0 913.92 779.50   L 921.39 779.50   A 0.31 0.31 0.0 0 0 921.68 779.09   L 918.07 768.92"
       id="path72"
       style="stroke-width:12.5;stroke-dasharray:none;stroke:#b5edff;stroke-opacity:1;fill:#000000;fill-opacity:0" />
    <path
       stroke="#899db4"
       vector-effect="non-scaling-stroke"
       d="   M 952.72 779.06   A 0.31 0.31 0.0 0 0 953.01 779.48   L 960.45 779.52   A 0.31 0.31 0.0 0 0 960.75 779.10   L 957.07 769.17   A 0.31 0.31 0.0 0 0 956.49 769.17   L 952.72 779.06"
       id="path74"
       style="stroke-width:12.5;stroke-dasharray:none;stroke:#b5edff;stroke-opacity:1;fill:#000000;fill-opacity:0" />
    <path
       stroke="#899db4"
       vector-effect="non-scaling-stroke"
       d="   M 995.49 767.06   L 995.51 776.82   A 0.22 0.22 0.0 0 0 995.73 777.04   L 1000.06 777.03   A 5.95 4.41 -0.1 0 0 1006.00 772.61   L 1006.00 771.23   A 5.95 4.41 -0.1 0 0 1000.04 766.83   L 995.71 766.84   A 0.22 0.22 0.0 0 0 995.49 767.06"
       id="path76"
       style="stroke-width:12.5;stroke-dasharray:none;stroke:#b5edff;stroke-opacity:1;fill:#000000;fill-opacity:0" />
    <path
       stroke="#899db4"
       vector-effect="non-scaling-stroke"
       d="   M 1017.53 779.01   A 0.31 0.31 0.0 0 0 1017.81 779.44   L 1025.43 779.56   A 0.31 0.31 0.0 0 0 1025.72 779.14   L 1022.08 768.97   A 0.31 0.31 0.0 0 0 1021.50 768.96   L 1017.53 779.01"
       id="path78"
       style="stroke-width:12.5;stroke-dasharray:none;stroke:#b5edff;stroke-opacity:1;fill:#000000;fill-opacity:0" />
    <path
       stroke="#899db4"
       vector-effect="non-scaling-stroke"
       d="   M 625.26 767.66   L 625.24 776.20   A 0.69 0.69 0.0 0 0 625.93 776.89   L 630.56 776.90   A 4.94 4.49 0.1 0 0 635.51 772.42   L 635.51 771.48   A 4.94 4.49 0.1 0 0 630.58 766.98   L 625.95 766.97   A 0.69 0.69 0.0 0 0 625.26 767.66"
       id="path80"
       style="stroke-width:12.5;stroke-dasharray:none;stroke:#b5edff;stroke-opacity:1;fill:#000000;fill-opacity:0" />
    <path
       stroke="#899db4"
       vector-effect="non-scaling-stroke"
       d="   M 727.29 767.17   L 727.29 776.61   A 0.36 0.36 0.0 0 0 727.65 776.97   L 731.90 776.97   A 5.85 4.65 -0.0 0 0 737.75 772.32   L 737.75 771.46   A 5.85 4.65 0.0 0 0 731.90 766.81   L 727.65 766.81   A 0.36 0.36 0.0 0 0 727.29 767.17"
       id="path82"
       style="stroke-width:12.5;stroke-dasharray:none;stroke:#b5edff;stroke-opacity:1;fill:#000000;fill-opacity:0" />
    <path
       stroke="#899db4"
       vector-effect="non-scaling-stroke"
       d="   M 793.55 767.18   L 793.45 787.56   A 0.28 0.28 0.0 0 0 793.73 787.84   L 798.49 787.87   A 9.72 9.46 0.3 0 0 808.25 778.46   L 808.27 776.44   A 9.72 9.46 0.3 0 0 798.59 766.93   L 793.83 766.90   A 0.28 0.28 0.0 0 0 793.55 767.18"
       id="path84"
       style="stroke-width:12.5;stroke-dasharray:none;stroke:#b5edff;stroke-opacity:1;fill:#000000;fill-opacity:0" />
    <path
       stroke="#899db4"
       vector-effect="non-scaling-stroke"
       d="   M 892.23 767.18   L 892.23 777.06   A 0.42 0.42 0.0 0 0 892.65 777.48   L 896.43 777.48   A 6.08 4.60 0.0 0 0 902.51 772.88   L 902.51 771.36   A 6.08 4.60 0.0 0 0 896.43 766.76   L 892.65 766.76   A 0.42 0.42 0.0 0 0 892.23 767.18"
       id="path86"
       style="stroke-width:12.5;stroke-dasharray:none;stroke:#b5edff;stroke-opacity:1;fill:#000000;fill-opacity:0" />
    <path
       stroke="#899db4"
       vector-effect="non-scaling-stroke"
       d="   M 973.25 767.34   L 973.25 775.02   A 0.34 0.34 0.0 0 0 973.59 775.36   L 979.30 775.36   A 5.19 3.70 0.0 0 0 984.49 771.66   L 984.49 770.70   A 5.19 3.70 -0.0 0 0 979.30 767.00   L 973.59 767.00   A 0.34 0.34 0.0 0 0 973.25 767.34"
       id="path88"
       style="stroke-width:12.5;stroke-dasharray:none;stroke:#b5edff;stroke-opacity:1;fill:#000000;fill-opacity:0" />
    <path
       stroke="#899db4"
       vector-effect="non-scaling-stroke"
       d="   M 973.23 778.52   L 973.19 787.60   A 0.41 0.41 0.0 0 0 973.59 788.01   L 978.64 788.04   A 6.60 4.47 0.3 0 0 985.27 783.60   L 985.27 782.64   A 6.60 4.47 0.3 0 0 978.70 778.14   L 973.65 778.11   A 0.41 0.41 0.0 0 0 973.23 778.52"
       id="path90"
       style="stroke-width:12.5;stroke-dasharray:none;stroke:#b5edff;stroke-opacity:1;fill:#000000;fill-opacity:0" />
    <path
       stroke="#899db4"
       vector-effect="non-scaling-stroke"
       d="   M 675.33 767.09   L 675.15 787.65   A 0.21 0.21 0.0 0 0 675.36 787.86   L 680.15 787.90   A 9.54 9.43 0.5 0 0 689.77 778.55   L 689.79 776.43   A 9.54 9.43 0.5 0 0 680.33 766.92   L 675.54 766.88   A 0.21 0.21 0.0 0 0 675.33 767.09"
       id="path92"
       style="stroke-width:12.5;stroke-dasharray:none;stroke:#b5edff;stroke-opacity:1;fill:#000000;fill-opacity:0" />
    <path
       stroke="#80d9f6"
       vector-effect="non-scaling-stroke"
       d="m 921.05575,587.06921 c 21.79714,10.56182 35.28063,-13.27429 39.8716,-30.18513 q 4.33149,-15.9371 5.36944,-32.42069 c 1.55693,-25.02841 0.9581,-50.63312 -5.54909,-74.98589 -4.31151,-16.16565 -18.2042,-41.82003 -39.38255,-30.33418 q -1.10783,0.6061 -1.10783,1.85801 v 164.78614 a 1.4167706,1.43121 18.291174 0 0 0.79843,1.28174"
       id="path62"
       style="fill:#000000;fill-opacity:0;stroke:#b5edff;stroke-width:16.4308;stroke-dasharray:none;stroke-opacity:1" />
    <path
       stroke="#80d9f6"
       vector-effect="non-scaling-stroke"
       d="m 861.11362,718.62987 q 3.54305,2.45416 6.02817,2.59326 19.1623,1.00352 52.56662,0.19872 0.55889,-0.01 0.55889,-0.5564 l -0.02,-86.46181 a 0.41917317,0.42724436 2.3451399 0 1 0.44912,-0.42725 c 26.43802,1.4407 50.05158,-3.55704 70.9904,-19.49415 39.45248,-30.03609 44.15328,-86.80956 41.17918,-131.8786 -4.0423,-61.25455 -36.72781,-111.08287 -104.3749,-110.36748 q -36.5581,0.38749 -73.18609,-0.0894 a 0.79842994,0.79486841 0 0 0 -0.80841,0.8346 c 0.54893,12.34033 0.17966,27.37328 0.16967,36.93158 q -0.10979,143.27503 0.04,286.55007 c 0.01,8.30638 -1.35733,16.79159 6.4074,22.16688"
       id="path12"
       style="fill:#000000;fill-opacity:0;stroke:#b5edff;stroke-width:16.4308;stroke-dasharray:none;stroke-opacity:1" />
    <path
       stroke="#80d9f6"
       vector-effect="non-scaling-stroke"
       d="m 463.9147,702.69276 c 0,12.40989 4.7806,18.87812 17.95469,18.89799 q 50.16137,0.0695 100.32272,0.01 c 9.22187,-0.01 17.79502,-1.7189 19.88091,-11.97271 0.88825,-4.34195 0.2495,-10.40282 0.33934,-14.14865 q 0.34929,-15.50985 0.18962,-30.56267 -0.01,-1.17244 -1.18767,-1.17244 h -68.3456 q -0.49902,0 -0.49902,-0.4968 -0.10978,-135.46544 -0.04,-270.93089 c 0.01,-15.79802 -5.35947,-20.13003 -21.14842,-20.14991 q -23.55369,-0.0199 -46.91774,-0.01 -0.5589,0 -0.5589,0.54647 -0.01,165.0743 0.01,329.98962"
       id="path10"
       style="fill:#000000;fill-opacity:0;stroke:#b5edff;stroke-width:16.4308;stroke-dasharray:none;stroke-opacity:1" />
    <path
       stroke="#80d9f6"
       vector-effect="non-scaling-stroke"
       d="m 755.18194,619.20178 q 2.36534,13.5525 -5.70878,24.55149 c -19.55156,26.63803 -58.89419,12.73776 -81.86899,0.72531 q -0.78845,-0.40736 -1.20764,0.36762 l -29.37224,54.15042 a 0.96718503,0.95474078 23.045572 0 0 0.28943,1.24198 c 44.1432,31.77487 99.87361,35.62005 143.56768,0.95385 31.2286,-24.78002 45.38077,-63.37088 35.62993,-102.18035 -2.69469,-10.74064 -5.83851,-19.32522 -12.31577,-27.64154 C 794.04552,558.33472 782.58803,547.75304 768.875,536.7441 q -23.40396,-18.77876 -59.01394,-40.60783 -5.99821,-3.67628 -11.80679,-9.56822 c -2.7945,-2.82179 -4.72072,-6.47817 -6.76669,-9.92594 q -3.56299,-6.00124 -3.88237,-17.27843"
       id="path4"
       style="fill:#000000;fill-opacity:0;stroke:#b5edff;stroke-width:16.4308;stroke-dasharray:none;stroke-opacity:1" />
    <path
       stroke="#899db4"
       vector-effect="non-scaling-stroke"
       d="m 687.40521,459.36368 c 3.23365,-18.3714 18.15431,-29.46976 36.67788,-27.84027 18.25412,1.6096 34.21271,7.87912 50.87995,16.22524 q 0.56889,0.27821 0.8683,-0.26826 l 23.25427,-41.54182 a 0.87684443,0.86582764 32.090711 0 0 -0.0499,-0.91411 q -1.26752,-1.76856 -2.76456,-3.36824 c -30.42018,-32.37101 -79.54359,-44.18473 -120.05392,-23.49829 -28.67362,14.64545 -51.26918,46.61903 -53.09559,78.9205 q -1.76654,31.21845 13.96252,59.14814 c 8.00427,14.21821 22.34607,25.75374 35.41038,35.24247 q 30.93916,22.46497 63.69475,42.12803 14.54141,8.74355 18.99266,25.60471"
       id="path6"
       style="fill:#000000;fill-opacity:0;stroke:#b5edff;stroke-width:16.4308;stroke-dasharray:none;stroke-opacity:1" />
    <path
       stroke="#0977aa"
       vector-effect="non-scaling-stroke"
       d="m 687.40521,459.36368 c -6.76669,23.77649 1.0779,47.68215 17.38581,65.47727 q 2.96419,3.23908 12.72499,11.51567 c 17.67525,14.98326 32.4961,29.99634 36.94734,53.53439 q 2.45518,12.95634 1.97612,28.23769 -0.02,0.48685 -0.44912,0.69551 l -0.80841,0.37757"
       id="path8"
       style="fill:#000000;fill-opacity:0;stroke:#b5edff;stroke-width:16.4308;stroke-dasharray:none;stroke-opacity:1" />
  </g>
  <path
     fill="#123b68"
     d="   M 187.79 467.34   L 61.84 444.29   A 0.33 0.33 0.0 0 1 61.57 443.96   L 61.80 390.95   A 0.33 0.33 0.0 0 1 62.08 390.63   L 193.83 371.14   A 0.33 0.33 0.0 0 0 194.11 370.84   L 205.17 240.55   A 0.33 0.33 0.0 0 1 205.50 240.25   L 265.95 240.25   A 0.33 0.33 0.0 0 1 266.28 240.55   L 277.29 370.82   A 0.33 0.33 0.0 0 0 277.57 371.12   L 409.47 390.68   A 0.33 0.33 0.0 0 1 409.75 391.00   L 409.75 443.96   A 0.33 0.33 0.0 0 1 409.48 444.29   L 283.63 467.33   A 0.33 0.33 0.0 0 0 283.36 467.67   L 302.83 796.15   A 0.33 0.33 0.0 0 1 302.50 796.50   L 168.93 796.50   A 0.33 0.33 0.0 0 1 168.60 796.15   L 188.06 467.68   A 0.33 0.33 0.0 0 0 187.79 467.34   Z"
     id="path98"
     style="stroke:#b5edff;stroke-opacity:1;stroke-width:12.5;stroke-dasharray:none" />
  <path
     fill="#123b68"
     d="   M 686.69 458.80   C 679.91 482.73 687.77 506.79 704.11 524.70   Q 707.08 527.96 716.86 536.29   C 734.57 551.37 749.42 566.48 753.88 590.17   Q 756.34 603.21 755.86 618.59   Q 755.84 619.08 755.41 619.29   L 754.60 619.67   Q 750.14 602.70 735.57 593.90   Q 702.75 574.11 671.75 551.50   C 658.66 541.95 644.29 530.34 636.27 516.03   Q 620.51 487.92 622.28 456.50   C 624.11 423.99 646.75 391.81 675.48 377.07   C 716.07 356.25 765.29 368.14 795.77 400.72   Q 797.27 402.33 798.54 404.11   A 0.88 0.87 42.4 0 1 798.59 405.03   L 775.29 446.84   Q 774.99 447.39 774.42 447.11   C 757.72 438.71 741.73 432.40 723.44 430.78   C 704.88 429.14 689.93 440.31 686.69 458.80   Z"
     id="path100" />
  <path
     fill="#00b2ec"
     d="   M 480.75 722.72   C 467.55 722.70 462.76 716.19 462.76 703.70   Q 462.74 537.72 462.75 371.58   Q 462.75 371.03 463.31 371.03   Q 486.72 371.02 510.32 371.04   C 526.14 371.06 531.52 375.42 531.51 391.32   Q 531.44 527.66 531.55 664.00   Q 531.55 664.50 532.05 664.50   L 600.53 664.50   Q 601.71 664.50 601.72 665.68   Q 601.88 680.83 601.53 696.44   C 601.44 700.21 602.08 706.31 601.19 710.68   C 599.10 721.00 590.51 722.72 581.27 722.73   Q 531.01 722.79 480.75 722.72   Z"
     id="path102" />
  <path
     fill="#00b2ec"
     d="   M 860.74 719.74   C 852.96 714.33 854.33 705.79 854.32 697.43   Q 854.17 553.23 854.28 409.03   C 854.29 399.41 854.66 384.28 854.11 371.86   A 0.80 0.80 0.0 0 1 854.92 371.02   Q 891.62 371.50 928.25 371.11   C 996.03 370.39 1028.78 420.54 1032.83 482.19   C 1035.81 527.55 1031.10 584.69 991.57 614.92   C 970.59 630.96 946.93 635.99 920.44 634.54   A 0.43 0.42 -88.1 0 0 919.99 634.97   L 920.01 721.99   Q 920.01 722.54 919.45 722.55   Q 885.98 723.36 866.78 722.35   Q 864.29 722.21 860.74 719.74   Z   M 920.80 587.33   C 942.64 597.96 956.15 573.97 960.75 556.95   Q 965.09 540.91 966.13 524.32   C 967.69 499.13 967.09 473.36 960.57 448.85   C 956.25 432.58 942.33 406.76 921.11 418.32   Q 920.00 418.93 920.00 420.19   L 920.00 586.04   A 1.44 1.42 -77.2 0 0 920.80 587.33   Z"
     id="path104" />
  <path
     fill="#00b2ec"
     d="   M 686.69 458.80   Q 687.01 470.15 690.58 476.19   C 692.63 479.66 694.56 483.34 697.36 486.18   Q 703.18 492.11 709.19 495.81   Q 744.87 517.78 768.32 536.68   C 782.06 547.76 793.54 558.41 803.71 571.53   C 810.20 579.90 813.35 588.54 816.05 599.35   C 825.82 638.41 811.64 677.25 780.35 702.19   C 736.57 737.08 680.73 733.21 636.50 701.23   A 0.97 0.96 32.1 0 1 636.21 699.98   L 665.64 645.48   Q 666.06 644.70 666.85 645.11   C 689.87 657.20 729.29 671.19 748.88 644.38   Q 756.97 633.31 754.60 619.67   L 755.41 619.29   Q 755.84 619.08 755.86 618.59   Q 756.34 603.21 753.88 590.17   C 749.42 566.48 734.57 551.37 716.86 536.29   Q 707.08 527.96 704.11 524.70   C 687.77 506.79 679.91 482.73 686.69 458.80   Z"
     id="path108" />
  <circle
     fill="#123b68"
     cx="383.01"
     cy="546.87"
     r="26.68"
     id="circle110"
     style="stroke:#b5edff;stroke-opacity:1;stroke-width:9.9;stroke-dasharray:none" />
  <path
     fill="#123b68"
     d="   M 465.85 787.75   L 476.81 787.75   Q 477.25 787.75 477.42 787.33   L 486.14 764.71   A 1.85 1.85 0.0 0 1 489.59 764.71   L 499.38 789.86   Q 499.63 790.50 498.94 790.50   L 496.88 790.50   A 0.93 0.92 -9.9 0 1 496.01 789.89   Q 494.69 786.32 493.42 782.74   A 0.75 0.73 79.7 0 0 492.73 782.25   L 483.00 782.25   A 0.81 0.80 9.7 0 0 482.24 782.78   L 479.62 789.97   Q 479.43 790.50 478.86 790.50   L 462.86 790.50   Q 462.23 790.50 462.23 789.87   L 462.26 764.76   Q 462.26 764.23 462.79 764.19   L 464.77 764.02   A 0.69 0.69 0.0 0 1 465.52 764.71   L 465.46 787.35   Q 465.46 787.75 465.85 787.75   Z   M 483.87 778.93   A 0.34 0.34 0.0 0 0 484.19 779.39   L 491.49 779.43   A 0.34 0.34 0.0 0 0 491.81 778.97   L 488.17 769.25   A 0.34 0.34 0.0 0 0 487.53 769.25   L 483.87 778.93   Z"
     id="path112" />
  <path
     fill="#123b68"
     d="   M 526.88 790.07   C 503.43 798.54 500.31 757.22 527.98 764.92   Q 528.42 765.04 528.35 765.49   L 528.19 766.59   A 1.32 1.31 14.9 0 1 526.41 767.62   C 508.68 760.69 506.01 790.10 523.22 788.00   Q 525.37 787.74 526.39 787.68   A 1.23 1.23 0.0 0 1 526.88 790.07   Z"
     id="path114" />
  <path
     fill="#123b68"
     d="   M 554.3125 779.9143   A 11.05 11.05 0.0 0 1 543.1856 790.8869   L 541.1256 790.8725   A 11.05 11.05 0.0 0 1 530.1531 779.7456   L 530.1875 774.8057   A 11.05 11.05 0.0 0 1 541.3144 763.8331   L 543.3744 763.8475   A 11.05 11.05 0.0 0 1 554.3469 774.9744   L 554.3125 779.9143   Z   M 550.8949 774.5850   A 7.95 7.95 0.0 0 0 542.9588 766.6212   L 541.6188 766.6188   A 7.95 7.95 0.0 0 0 533.6549 774.5550   L 533.6451 780.1750   A 7.95 7.95 0.0 0 0 541.5812 788.1388   L 542.9212 788.1412   A 7.95 7.95 0.0 0 0 550.8851 780.2050   L 550.8949 774.5850   Z"
     id="path116" />
  <path
     fill="#123b68"
     d="   M 560.53 769.59   C 558.57 777.57 575.76 774.61 573.27 785.03   C 571.54 792.28 562.61 791.50 557.22 790.11   Q 556.73 789.98 556.75 789.48   L 556.80 787.30   Q 556.82 786.59 557.47 786.89   Q 563.06 789.51 568.77 787.29   A 1.59 1.56 -85.2 0 0 569.57 786.60   C 573.36 779.86 563.36 778.46 560.08 776.41   C 554.96 773.20 556.86 765.30 562.50 764.03   Q 566.91 763.03 572.29 765.05   A 0.54 0.54 0.0 0 1 572.63 765.69   L 572.22 767.36   Q 572.08 767.94 571.50 767.77   C 568.52 766.94 561.74 764.69 560.53 769.59   Z"
     id="path118" />
  <path
     fill="#123b68"
     d="   M 586.69 776.56   C 581.36 773.50 582.91 765.34 588.77 764.01   Q 593.15 763.01 598.66 764.99   Q 599.13 765.16 598.99 765.63   L 598.49 767.37   Q 598.32 767.99 597.71 767.77   Q 594.02 766.44 591.28 766.53   C 586.32 766.69 584.56 772.14 589.26 774.41   C 594.62 776.99 602.09 778.48 599.08 786.83   C 597.20 792.03 587.48 791.28 583.49 789.92   Q 583.08 789.78 583.06 789.35   L 582.98 787.61   Q 582.95 787.05 583.49 787.19   C 586.83 788.04 594.88 789.99 596.54 785.12   C 598.26 780.09 589.44 778.14 586.69 776.56   Z"
     id="path120" />
  <path
     fill="#123b68"
     d="   M 719.9046 779.9592   A 10.94 10.94 0.0 0 1 708.9837 790.9183   L 707.0237 790.9217   A 10.94 10.94 0.0 0 1 696.0646 780.0008   L 696.0554 774.7608   A 10.94 10.94 0.0 0 1 706.9763 763.8017   L 708.9363 763.7983   A 10.94 10.94 0.0 0 1 719.8954 774.7192   L 719.9046 779.9592   Z   M 716.6151 774.5750   A 7.95 7.95 0.0 0 0 708.6512 766.6388   L 707.3112 766.6412   A 7.95 7.95 0.0 0 0 699.3751 774.6050   L 699.3849 780.2050   A 7.95 7.95 0.0 0 0 707.3488 788.1412   L 708.6888 788.1388   A 7.95 7.95 0.0 0 0 716.6249 780.1750   L 716.6151 774.5750   Z"
     id="path122" />
  <path
     fill="#123b68"
     d="   M 775.69 782.53   C 773.74 776.89 759.57 779.03 763.16 768.18   C 765.05 762.46 773.67 763.38 777.97 764.87   A 0.92 0.92 0.0 0 1 778.41 766.29   L 777.46 767.59   Q 777.14 768.02 776.66 767.80   Q 772.07 765.72 768.23 766.99   C 765.80 767.79 764.99 771.65 767.04 773.53   C 771.15 777.29 780.77 776.29 778.99 785.01   C 777.56 792.02 768.79 791.66 763.44 790.33   Q 762.95 790.21 762.67 789.79   Q 761.85 788.60 762.47 787.40   Q 762.74 786.88 763.30 787.04   C 766.49 787.94 778.26 789.99 775.69 782.53   Z"
     id="path124" />
  <path
     fill="#123b68"
     d="   M 845.60 787.75   L 856.57 787.75   Q 857.17 787.75 857.39 787.19   L 866.07 764.75   A 1.82 1.82 0.0 0 1 869.46 764.74   L 879.32 790.11   Q 879.48 790.51 879.05 790.50   L 876.65 790.45   Q 876.08 790.44 875.88 789.90   L 873.27 782.80   Q 873.09 782.31 872.56 782.29   L 863.30 782.09   A 1.22 1.21 11.4 0 0 862.14 782.86   L 859.36 790.03   Q 859.17 790.50 858.67 790.50   L 842.83 790.50   Q 842.41 790.50 842.41 790.08   L 842.41 764.80   Q 842.41 764.25 842.95 764.25   L 844.64 764.25   Q 845.27 764.25 845.27 764.89   L 845.21 787.35   Q 845.21 787.75 845.60 787.75   Z   M 863.81 779.03   A 0.31 0.31 0.0 0 0 864.10 779.44   L 871.45 779.43   A 0.31 0.31 0.0 0 0 871.74 779.01   L 868.05 768.99   A 0.31 0.31 0.0 0 0 867.47 768.99   L 863.81 779.03   Z"
     id="path126" />
  <path
     fill="#123b68"
     d="   M 922.63 782.27   L 912.82 782.24   Q 912.31 782.24 912.12 782.72   L 909.28 790.09   Q 909.12 790.50 908.68 790.50   L 906.63 790.50   Q 905.94 790.50 906.19 789.86   L 915.92 764.91   A 1.89 1.88 -45.0 0 1 919.43 764.91   L 929.28 790.09   A 0.28 0.28 0.0 0 1 929.02 790.48   L 926.63 790.51   A 0.95 0.93 -9.6 0 1 925.74 789.89   L 923.11 782.60   Q 922.98 782.27 922.63 782.27   Z   M 918.07 768.92   A 0.31 0.31 0.0 0 0 917.49 768.92   L 913.63 779.08   A 0.31 0.31 0.0 0 0 913.92 779.50   L 921.39 779.50   A 0.31 0.31 0.0 0 0 921.68 779.09   L 918.07 768.92   Z"
     id="path128" />
  <path
     fill="#123b68"
     d="   M 934.76 787.75   L 945.69 787.75   Q 946.13 787.75 946.28 787.34   Q 950.43 776.50 954.63 765.81   C 955.18 764.43 956.10 763.32 957.61 763.91   Q 958.21 764.14 958.44 764.74   L 968.21 789.84   Q 968.51 790.61 967.68 790.62   L 965.83 790.64   Q 965.15 790.64 964.91 790.00   L 962.24 782.76   Q 962.05 782.25 961.51 782.25   L 951.99 782.25   A 0.82 0.82 0.0 0 0 951.22 782.78   L 948.45 790.00   Q 948.26 790.50 947.73 790.50   L 931.78 790.50   A 0.48 0.47 89.4 0 1 931.31 790.03   L 931.10 764.84   Q 931.09 764.28 931.66 764.21   L 933.83 763.95   Q 934.43 763.88 934.41 764.48   Q 934.11 775.88 934.29 787.28   Q 934.30 787.75 934.76 787.75   Z   M 952.72 779.06   A 0.31 0.31 0.0 0 0 953.01 779.48   L 960.45 779.52   A 0.31 0.31 0.0 0 0 960.75 779.10   L 957.07 769.17   A 0.31 0.31 0.0 0 0 956.49 769.17   L 952.72 779.06   Z"
     id="path130" />
  <path
     fill="#123b68"
     d="   M 1010.88 788.26   Q 1015.35 776.67 1020.29 764.91   Q 1020.59 764.21 1020.77 764.08   A 1.71 1.61 -29.2 0 1 1023.33 764.72   L 1033.06 789.72   A 0.53 0.53 0.0 0 1 1032.60 790.44   L 1030.89 790.52   Q 1030.20 790.56 1029.95 789.91   L 1027.23 782.78   Q 1027.05 782.30 1026.52 782.29   L 1016.71 782.16   Q 1016.27 782.16 1016.11 782.58   L 1013.34 789.88   Q 1013.10 790.50 1012.44 790.50   L 1007.88 790.50   Q 1007.37 790.50 1007.11 790.06   L 1001.33 780.05   Q 1001.03 779.53 1000.43 779.52   L 996.12 779.46   Q 995.50 779.45 995.50 780.06   L 995.50 789.87   Q 995.50 790.50 994.87 790.50   L 993.13 790.50   A 0.62 0.62 0.0 0 1 992.51 789.88   L 992.43 764.71   Q 992.42 764.36 992.77 764.32   C 997.82 763.75 1007.50 762.80 1009.05 769.59   Q 1010.44 775.68 1004.59 778.71   Q 1004.14 778.94 1004.40 779.37   L 1009.71 788.35   A 0.65 0.65 0.0 0 0 1010.88 788.26   Z   M 995.49 767.06   L 995.51 776.82   A 0.22 0.22 0.0 0 0 995.73 777.04   L 1000.06 777.03   A 5.95 4.41 -0.1 0 0 1006.00 772.61   L 1006.00 771.23   A 5.95 4.41 -0.1 0 0 1000.04 766.83   L 995.71 766.84   A 0.22 0.22 0.0 0 0 995.49 767.06   Z   M 1017.53 779.01   A 0.31 0.31 0.0 0 0 1017.81 779.44   L 1025.43 779.56   A 0.31 0.31 0.0 0 0 1025.72 779.14   L 1022.08 768.97   A 0.31 0.31 0.0 0 0 1021.50 768.96   L 1017.53 779.01   Z"
     id="path132" />
  <rect
     fill="#123b68"
     x="-1.54"
     y="-13.23"
     transform="translate(502.96,777.26) rotate(-0.4)"
     width="3.08"
     height="26.46"
     rx="0.52"
     id="rect134" />
  <path
     fill="#123b68"
     d="   M 634.03 779.37   L 640.47 789.92   Q 640.82 790.50 640.14 790.50   L 637.54 790.50   Q 636.99 790.50 636.72 790.03   Q 633.78 785.02 630.91 779.97   Q 630.66 779.55 630.18 779.54   L 625.89 779.48   Q 625.25 779.47 625.25 780.11   L 625.25 789.87   Q 625.25 790.50 624.62 790.50   L 622.78 790.50   Q 622.30 790.50 622.30 790.03   L 622.14 764.65   Q 622.13 764.10 622.68 764.06   Q 627.10 763.78 632.76 764.47   C 640.67 765.45 640.99 775.39 634.21 778.76   Q 633.79 778.97 634.03 779.37   Z   M 625.26 767.66   L 625.24 776.20   A 0.69 0.69 0.0 0 0 625.93 776.89   L 630.56 776.90   A 4.94 4.49 0.1 0 0 635.51 772.42   L 635.51 771.48   A 4.94 4.49 0.1 0 0 630.58 766.98   L 625.95 766.97   A 0.69 0.69 0.0 0 0 625.26 767.66   Z"
     id="path136" />
  <path
     fill="#123b68"
     d="   M 650.36 785.47   A 0.29 0.28 44.6 0 0 650.90 785.47   Q 654.17 775.56 657.72 765.77   C 658.32 764.12 659.36 763.57 661.04 764.07   A 0.69 0.69 0.0 0 1 661.49 764.97   L 652.37 790.14   Q 652.24 790.50 651.86 790.50   L 649.60 790.50   Q 648.90 790.50 648.67 789.84   Q 644.29 777.34 639.83 764.87   Q 639.61 764.25 640.27 764.25   L 642.36 764.25   Q 643.01 764.25 643.23 764.86   L 650.36 785.47   Z"
     id="path138" />
  <rect
     fill="#123b68"
     x="-1.52"
     y="-13.26"
     transform="translate(664.99,777.31) rotate(0.2)"
     width="3.04"
     height="26.52"
     rx="0.42"
     id="rect140" />
  <path
     fill="#123b68"
     d="   M 732.29 779.61   L 727.78 779.45   Q 727.25 779.43 727.25 779.97   L 727.25 790.00   Q 727.25 790.50 726.75 790.50   L 724.79 790.50   Q 724.32 790.50 724.32 790.03   L 724.09 764.70   Q 724.09 764.27 724.51 764.23   C 731.21 763.64 742.37 762.94 740.96 773.04   Q 740.43 776.88 736.43 778.50   Q 735.78 778.76 736.14 779.36   L 742.38 789.56   A 0.61 0.60 -15.9 0 1 741.86 790.48   L 739.88 790.51   Q 739.16 790.51 738.80 789.90   L 732.96 780.00   Q 732.73 779.62 732.29 779.61   Z   M 727.29 767.17   L 727.29 776.61   A 0.36 0.36 0.0 0 0 727.65 776.97   L 731.90 776.97   A 5.85 4.65 -0.0 0 0 737.75 772.32   L 737.75 771.46   A 5.85 4.65 0.0 0 0 731.90 766.81   L 727.65 766.81   A 0.36 0.36 0.0 0 0 727.29 767.17   Z"
     id="path142" />
  <path
     fill="#123b68"
     d="   M 748.88 787.75   L 759.82 787.75   A 0.43 0.43 0.0 0 1 760.25 788.18   L 760.25 790.04   A 0.43 0.43 0.0 0 1 759.82 790.47   L 745.68 790.55   A 0.43 0.43 0.0 0 1 745.25 790.12   L 745.25 764.55   A 0.43 0.43 0.0 0 1 745.69 764.12   L 760.05 764.29   A 0.43 0.43 0.0 0 1 760.47 764.77   L 760.31 766.36   A 0.43 0.43 0.0 0 1 759.88 766.75   L 748.78 766.75   A 0.43 0.43 0.0 0 0 748.35 767.19   L 748.56 775.08   A 0.43 0.43 0.0 0 0 748.99 775.50   L 759.33 775.50   A 0.43 0.43 0.0 0 1 759.76 775.94   L 759.73 777.77   A 0.43 0.43 0.0 0 1 759.30 778.19   L 748.96 778.17   A 0.43 0.43 0.0 0 0 748.53 778.60   L 748.45 787.32   A 0.43 0.43 0.0 0 0 748.88 787.75   Z"
     id="path144" />
  <path
     fill="#123b68"
     d="   M 790.44 764.33   A 0.31 0.31 0.0 0 1 790.75 764.02   L 799.17 763.99   A 12.51 12.50 -0.2 0 1 811.73 776.44   L 811.73 778.06   A 12.51 12.50 -0.2 0 1 799.27 790.61   L 790.85 790.64   A 0.31 0.31 0.0 0 1 790.54 790.33   L 790.44 764.33   Z   M 793.55 767.18   L 793.45 787.56   A 0.28 0.28 0.0 0 0 793.73 787.84   L 798.49 787.87   A 9.72 9.46 0.3 0 0 808.25 778.46   L 808.27 776.44   A 9.72 9.46 0.3 0 0 798.59 766.93   L 793.83 766.90   A 0.28 0.28 0.0 0 0 793.55 767.18   Z"
     id="path146" />
  <path
     fill="#123b68"
     d="   M 818.98 787.75   L 830.17 787.75   A 0.33 0.33 0.0 0 1 830.50 788.08   L 830.50 790.17   A 0.33 0.33 0.0 0 1 830.17 790.50   L 816.10 790.50   A 0.33 0.33 0.0 0 1 815.77 790.17   L 815.71 764.58   A 0.33 0.33 0.0 0 1 816.04 764.25   L 830.21 764.25   A 0.33 0.33 0.0 0 1 830.54 764.60   L 830.41 766.69   A 0.33 0.33 0.0 0 1 830.08 767.00   L 818.98 766.99   A 0.33 0.33 0.0 0 0 818.65 767.33   L 818.80 775.18   A 0.33 0.33 0.0 0 0 819.13 775.50   L 829.42 775.50   A 0.33 0.33 0.0 0 1 829.75 775.83   L 829.75 777.96   A 0.33 0.33 0.0 0 1 829.42 778.29   L 819.05 778.18   A 0.33 0.33 0.0 0 0 818.72 778.51   L 818.65 787.42   A 0.33 0.33 0.0 0 0 818.98 787.75   Z"
     id="path148" />
  <path
     fill="#123b68"
     d="   M 892.25 780.74   L 892.25 789.91   Q 892.25 790.38 891.78 790.44   L 889.76 790.70   Q 889.00 790.80 889.00 790.03   Q 889.00 777.28 889.00 764.54   Q 889.00 764.05 889.49 764.03   C 895.18 763.80 905.09 762.90 905.85 771.05   C 906.62 779.15 898.98 780.75 892.83 780.21   Q 892.25 780.16 892.25 780.74   Z   M 892.23 767.18   L 892.23 777.06   A 0.42 0.42 0.0 0 0 892.65 777.48   L 896.43 777.48   A 6.08 4.60 0.0 0 0 902.51 772.88   L 902.51 771.36   A 6.08 4.60 0.0 0 0 896.43 766.76   L 892.65 766.76   A 0.42 0.42 0.0 0 0 892.23 767.18   Z"
     id="path150" />
  <path
     fill="#123b68"
     d="   M 984.22 777.09   C 989.97 778.60 989.82 786.52 985.50 789.26   C 982.20 791.34 975.05 790.44 970.69 790.65   Q 970.27 790.67 970.27 790.24   L 970.21 764.99   A 1.01 1.01 0.0 0 1 971.21 763.98   C 976.81 763.91 988.96 762.54 987.59 771.94   C 987.28 774.09 986.26 775.53 984.20 776.16   A 0.48 0.48 0.0 0 0 984.22 777.09   Z   M 973.25 767.34   L 973.25 775.02   A 0.34 0.34 0.0 0 0 973.59 775.36   L 979.30 775.36   A 5.19 3.70 0.0 0 0 984.49 771.66   L 984.49 770.70   A 5.19 3.70 -0.0 0 0 979.30 767.00   L 973.59 767.00   A 0.34 0.34 0.0 0 0 973.25 767.34   Z   M 973.23 778.52   L 973.19 787.60   A 0.41 0.41 0.0 0 0 973.59 788.01   L 978.64 788.04   A 6.60 4.47 0.3 0 0 985.27 783.60   L 985.27 782.64   A 6.60 4.47 0.3 0 0 978.70 778.14   L 973.65 778.11   A 0.41 0.41 0.0 0 0 973.23 778.52   Z"
     id="path152" />
  <path
     fill="#123b68"
     d="   M 606.45 767.22   L 606.52 774.93   Q 606.53 775.57 607.17 775.57   L 616.86 775.47   Q 617.50 775.46 617.50 776.11   L 617.50 777.65   Q 617.50 778.31 616.84 778.30   L 606.97 778.14   Q 606.51 778.13 606.51 778.59   L 606.48 787.33   Q 606.47 787.86 607.01 787.85   L 617.65 787.70   Q 618.24 787.69 618.24 788.28   L 618.24 789.87   Q 618.24 790.54 617.57 790.53   L 603.80 790.48   Q 603.37 790.48 603.37 790.05   L 603.32 764.84   A 0.59 0.59 0.0 0 1 603.91 764.25   L 617.70 764.25   Q 618.11 764.25 618.24 764.63   C 619.64 768.51 608.71 766.86 606.93 766.76   Q 606.45 766.73 606.45 767.22   Z"
     id="path154" />
  <path
     fill="#123b68"
     d="   M 671.97 764.41   A 0.21 0.21 0.0 0 1 672.18 764.20   L 681.31 764.20   A 11.72 11.43 0.0 0 1 693.03 775.63   L 693.03 779.05   A 11.72 11.43 -0.0 0 1 681.31 790.48   L 672.18 790.48   A 0.21 0.21 0.0 0 1 671.97 790.27   L 671.97 764.41   Z   M 675.33 767.09   L 675.15 787.65   A 0.21 0.21 0.0 0 0 675.36 787.86   L 680.15 787.90   A 9.54 9.43 0.5 0 0 689.77 778.55   L 689.79 776.43   A 9.54 9.43 0.5 0 0 680.33 766.92   L 675.54 766.88   A 0.21 0.21 0.0 0 0 675.33 767.09   Z"
     id="path156" />
</svg>
